<svg width="71" height="40" viewBox="0 0 71 40" fill="none" xmlns="http://www.w3.org/2000/svg">
<rect x="31.9395" width="26.5836" height="6.61149" fill="url(#paint0_linear_4212_25758)"/>
<path d="M13.6889 39.9999C11.0284 39.9999 8.4608 39.6297 5.98597 38.8892C3.54209 38.1134 1.54676 37.1261 0 35.9273L3.01619 28.205C4.47015 29.2629 6.14065 30.1444 8.0277 30.8496C9.94569 31.5196 11.8482 31.8546 13.7353 31.8546C15.0036 31.8546 16.0245 31.7312 16.7979 31.4843C17.5712 31.2023 18.1281 30.8496 18.4684 30.4265C18.8396 29.9681 19.0252 29.4392 19.0252 28.8397C19.0252 27.9935 18.6849 27.3235 18.0043 26.8298C17.3238 26.3362 16.4421 25.9307 15.3594 25.6133C14.2766 25.296 13.0702 24.9786 11.7399 24.6613C10.4407 24.3439 9.12591 23.9384 7.79569 23.4448C6.49641 22.9511 5.3054 22.3164 4.22266 21.5407C3.13993 20.7297 2.25827 19.6894 1.5777 18.42C0.897123 17.1154 0.556835 15.4757 0.556835 13.5011C0.556835 11.2796 1.08273 9.26974 2.13453 7.47141C3.21727 5.67309 4.8259 4.22738 6.96044 3.13427C9.09497 2.04117 11.7554 1.49463 14.9417 1.49463C17.0763 1.49463 19.1644 1.77672 21.2061 2.3409C23.2788 2.86982 25.1194 3.66319 26.7281 4.72103L23.8975 12.4961C22.3507 11.5441 20.8194 10.8389 19.3036 10.3805C17.7878 9.88681 16.3184 9.63998 14.8953 9.63998C13.627 9.63998 12.6061 9.79866 11.8327 10.116C11.0594 10.3981 10.5025 10.786 10.1622 11.2796C9.82195 11.7733 9.65181 12.3375 9.65181 12.9722C9.65181 13.7832 9.97662 14.4355 10.6263 14.9292C11.3068 15.3876 12.1885 15.7754 13.2712 16.0928C14.3849 16.3749 15.5914 16.6746 16.8907 16.9919C18.2209 17.3093 19.5356 17.7148 20.8349 18.2085C22.1651 18.6669 23.3716 19.3016 24.4543 20.1126C25.5371 20.8883 26.4033 21.9285 27.0529 23.2332C27.7335 24.5026 28.0738 26.107 28.0738 28.0464C28.0738 30.1973 27.5324 32.1896 26.4497 34.0231C25.3979 35.8215 23.8047 37.2672 21.6702 38.3603C19.5666 39.4534 16.9061 39.9999 13.6889 39.9999Z" fill="url(#paint1_linear_4212_25758)"/>
<path d="M42.48 39.7355C40.4383 39.7355 38.5977 39.2771 36.9581 38.3603C35.3495 37.4435 34.0811 36.0154 33.1531 34.076C32.2559 32.1014 31.8074 29.6155 31.8074 26.6183V10.592H40.6239V24.9786C40.6239 27.2001 40.9797 28.7868 41.6912 29.7389C42.4336 30.691 43.47 31.167 44.8002 31.167C45.6664 31.167 46.4552 30.9378 47.1667 30.4794C47.8783 30.021 48.4506 29.2981 48.8836 28.3108C49.3167 27.2882 49.5333 25.9836 49.5333 24.3968V10.592H58.3498V39.2595H49.9509V31.167L51.575 33.4413C50.7088 35.557 49.4559 37.1438 47.8164 38.2016C46.1768 39.2242 44.398 39.7355 42.48 39.7355Z" fill="url(#paint2_linear_4212_25758)"/>
<circle cx="66.1656" cy="35.8736" r="4.12651" fill="url(#paint3_linear_4212_25758)"/>
<defs>
<linearGradient id="paint0_linear_4212_25758" x1="31.9395" y1="3.30574" x2="58.523" y2="3.30574" gradientUnits="userSpaceOnUse">
<stop stop-color="#00A7DC"/>
<stop offset="1" stop-color="#751EBA"/>
</linearGradient>
<linearGradient id="paint1_linear_4212_25758" x1="0" y1="20.7473" x2="58.3498" y2="20.7473" gradientUnits="userSpaceOnUse">
<stop stop-color="#00A7DC"/>
<stop offset="1" stop-color="#751EBA"/>
</linearGradient>
<linearGradient id="paint2_linear_4212_25758" x1="0" y1="20.7473" x2="58.3498" y2="20.7473" gradientUnits="userSpaceOnUse">
<stop stop-color="#00A7DC"/>
<stop offset="1" stop-color="#751EBA"/>
</linearGradient>
<linearGradient id="paint3_linear_4212_25758" x1="62.0391" y1="35.8736" x2="70.2921" y2="35.8736" gradientUnits="userSpaceOnUse">
<stop stop-color="#00A7DC"/>
<stop offset="1" stop-color="#751EBA"/>
</linearGradient>
</defs>
</svg>
