<svg width="32" height="32" viewBox="0 0 32 32" fill="none" xmlns="http://www.w3.org/2000/svg">
<rect width="32" height="32" fill="black"/>
<rect x="14.7332" y="8.25586" width="10.2381" height="2.54939" fill="white"/>
<path d="M7.704 23.6797C6.67939 23.6797 5.69052 23.5369 4.73739 23.2514C3.79617 22.9522 3.02771 22.5715 2.43201 22.1093L3.59363 19.1316C4.1536 19.5395 4.79696 19.8794 5.52372 20.1513C6.2624 20.4097 6.99511 20.5388 7.72188 20.5388C8.21035 20.5388 8.60352 20.4912 8.90137 20.3961C9.19923 20.2873 9.41368 20.1513 9.54474 19.9882C9.68771 19.8114 9.75919 19.6075 9.75919 19.3763C9.75919 19.05 9.62813 18.7916 9.36602 18.6013C9.10391 18.4109 8.76436 18.2546 8.34737 18.1322C7.93037 18.0098 7.46572 17.8875 6.95341 17.7651C6.45302 17.6427 5.94667 17.4864 5.43436 17.296C4.93397 17.1056 4.47528 16.8609 4.05828 16.5618C3.64129 16.2491 3.30174 15.848 3.03963 15.3585C2.77752 14.8554 2.64646 14.2231 2.64646 13.4617C2.64646 12.6051 2.849 11.8301 3.25408 11.1367C3.67108 10.4432 4.29061 9.88578 5.11268 9.46428C5.93476 9.04278 6.95937 8.83203 8.18653 8.83203C9.0086 8.83203 9.8128 8.9408 10.5991 9.15835C11.3974 9.3623 12.1063 9.66823 12.7258 10.0761L11.6357 13.0742C11.04 12.7071 10.4502 12.4352 9.86642 12.2584C9.28262 12.0681 8.7167 11.9729 8.16865 11.9729C7.68018 11.9729 7.28701 12.0341 6.98916 12.1564C6.6913 12.2652 6.47685 12.4148 6.34579 12.6051C6.21474 12.7955 6.14921 13.013 6.14921 13.2578C6.14921 13.5705 6.27431 13.822 6.52451 14.0124C6.78662 14.1891 7.12617 14.3387 7.54316 14.4611C7.97207 14.5699 8.43672 14.6854 8.93712 14.8078C9.44942 14.9302 9.95577 15.0865 10.4562 15.2769C10.9685 15.4536 11.4331 15.6984 11.8501 16.0111C12.2671 16.3102 12.6007 16.7113 12.8509 17.2144C13.113 17.7039 13.2441 18.3226 13.2441 19.0704C13.2441 19.8998 13.0356 20.668 12.6186 21.375C12.2135 22.0685 11.5999 22.6259 10.7778 23.0474C9.96769 23.4689 8.94307 23.6797 7.704 23.6797Z" fill="white"/>
<path d="M18.7924 23.5777C18.006 23.5777 17.2971 23.4009 16.6657 23.0474C16.0462 22.6939 15.5577 22.1432 15.2003 21.3954C14.8548 20.634 14.682 19.6754 14.682 18.5197V12.34H18.0775V17.8875C18.0775 18.7441 18.2145 19.3559 18.4886 19.723C18.7745 20.0901 19.1736 20.2737 19.6859 20.2737C20.0195 20.2737 20.3233 20.1853 20.5974 20.0086C20.8714 19.8318 21.0918 19.5531 21.2586 19.1724C21.4254 18.778 21.5088 18.275 21.5088 17.6631V12.34H24.9043V23.3941H21.6696V20.2737L22.2951 21.1507C21.9615 21.9665 21.479 22.5783 20.8476 22.9862C20.2161 23.3805 19.531 23.5777 18.7924 23.5777Z" fill="white"/>
<ellipse cx="27.9147" cy="22.0887" rx="1.58925" ry="1.59118" fill="white"/>
</svg>
