<svg width="423" height="241" viewBox="0 0 423 241" fill="none" xmlns="http://www.w3.org/2000/svg">
<rect x="192.205" width="159.971" height="39.8342" fill="white"/>
<path d="M82.375 241C66.3654 241 50.9142 238.769 36.0216 234.308C21.3151 229.634 9.3079 223.685 0 216.462L18.1504 169.936C26.8998 176.309 36.9524 181.62 48.308 185.869C59.8498 189.906 71.2985 191.924 82.6542 191.924C90.2867 191.924 96.4299 191.181 101.084 189.693C105.738 187.994 109.089 185.869 111.136 183.32C113.37 180.558 114.487 177.371 114.487 173.76C114.487 168.661 112.439 164.624 108.344 161.65C104.249 158.676 98.943 156.233 92.4275 154.321C85.912 152.409 78.6518 150.497 70.647 148.584C62.8284 146.672 54.9166 144.229 46.9118 141.255C39.0932 138.281 31.9261 134.457 25.4106 129.783C18.895 124.896 13.5895 118.629 9.49406 110.981C5.39858 103.12 3.35085 93.2414 3.35085 81.3443C3.35085 67.96 6.51553 55.8504 12.8449 45.0155C19.3604 34.1806 29.0407 25.4702 41.8856 18.8842C54.7305 12.2983 70.7401 9.00537 89.9144 9.00537C102.759 9.00537 115.325 10.7049 127.611 14.1041C140.084 17.2909 151.16 22.071 160.841 28.4444L143.807 75.2895C134.499 69.5534 125.284 65.3044 116.163 62.5426C107.041 59.5683 98.1984 58.0811 89.6351 58.0811C82.0026 58.0811 75.8594 59.0371 71.2055 60.9492C66.5515 62.6488 63.2007 64.9857 61.1529 67.96C59.1052 70.9343 58.0813 74.3335 58.0813 78.1575C58.0813 83.0439 60.036 86.9742 63.9453 89.9485C68.0408 92.7103 73.3463 95.0473 79.8618 96.9593C86.5635 98.6589 93.8237 100.465 101.642 102.377C109.647 104.289 117.559 106.732 125.377 109.706C133.382 112.468 140.642 116.292 147.158 121.178C153.674 125.852 158.886 132.12 162.795 139.98C166.891 147.628 168.938 157.295 168.938 168.98C168.938 181.939 165.681 193.942 159.165 204.99C152.836 215.825 143.249 224.535 130.404 231.121C117.745 237.707 101.735 241 82.375 241Z" fill="white"/>
<path d="M255.631 239.406C243.344 239.406 232.268 236.645 222.401 231.121C212.721 225.597 205.089 216.993 199.504 205.308C194.105 193.411 191.406 178.434 191.406 160.375V63.8172H244.461V150.496C244.461 163.881 246.602 173.441 250.884 179.177C255.351 184.913 261.588 187.781 269.593 187.781C274.805 187.781 279.552 186.4 283.834 183.639C288.115 180.877 291.559 176.521 294.165 170.573C296.772 164.412 298.075 156.551 298.075 146.991V63.8172H351.13V236.538H300.588V187.781L310.361 201.484C305.149 214.231 297.609 223.791 287.743 230.165C277.877 236.326 267.172 239.406 255.631 239.406Z" fill="white"/>
<ellipse cx="398.168" cy="216.138" rx="24.832" ry="24.8623" fill="white"/>
</svg>
